HIERARCHY
ROOT RootJoint
{
    OFFSET   0.000000   0.000000   0.000000
    CHANNELS 6 Xposition Yposition Zposition Xrotation Yrotation Zrotation
    JOINT pelvis_lowerback
    {
        OFFSET   0.000000   0.093605   0.000000
        CHANNELS 3 Xrotation Yrotation Zrotation
        JOINT lowerback_torso
        {
            OFFSET   0.000000   0.100000   0.000000
            CHANNELS 3 Xrotation Yrotation Zrotation
            JOINT torso_head
            {
                OFFSET   0.000000   0.282350   0.000000
                CHANNELS 3 Xrotation Yrotation Zrotation
                End Site
                {
                    OFFSET   0.000000   0.192650   0.000000
                }
            }
            JOINT rTorso_Clavicle
            {
                OFFSET  -0.001000   0.157500   0.000000
                CHANNELS 3 Xrotation Yrotation Zrotation
                JOINT rShoulder
                {
                    OFFSET  -0.117647   0.000000   0.000000
                    CHANNELS 3 Xrotation Yrotation Zrotation
                    JOINT rElbow
                    {
                        OFFSET  -0.245000   0.000000   0.000000
                        CHANNELS 3 Xrotation Yrotation Zrotation
                        JOINT rWrist
                        {
                            OFFSET  -0.240000   0.000000   0.000000
                            CHANNELS 3 Xrotation Yrotation Zrotation
                            End Site
                            {
                                OFFSET  -0.116353  -0.002500   0.000000
                            }
                        }
                    }
                }
            }
            JOINT lTorso_Clavicle
            {
                OFFSET   0.001000   0.157500   0.000000
                CHANNELS 3 Xrotation Yrotation Zrotation
                JOINT lShoulder
                {
                    OFFSET   0.117647   0.000000   0.000000
                    CHANNELS 3 Xrotation Yrotation Zrotation
                    JOINT lElbow
                    {
                        OFFSET   0.245000   0.000000   0.000000
                        CHANNELS 3 Xrotation Yrotation Zrotation
                        JOINT lWrist
                        {
                            OFFSET   0.240000   0.000000   0.000000
                            CHANNELS 3 Xrotation Yrotation Zrotation
                            End Site
                            {
                                OFFSET   0.116353  -0.002500   0.000000
                            }
                        }
                    }
                }
            }
        }
    }
    JOINT rHip
    {
        OFFSET  -0.100000  -0.051395   0.000000
        CHANNELS 3 Xrotation Yrotation Zrotation
        JOINT rKnee
        {
            OFFSET   0.000000  -0.410000   0.000000
            CHANNELS 3 Xrotation Yrotation Zrotation
            JOINT rAnkle
            {
                OFFSET   0.000000  -0.390000   0.000000
                CHANNELS 3 Xrotation Yrotation Zrotation
                JOINT rToeJoint
                {
                    OFFSET   0.000000  -0.050000   0.130000
                    CHANNELS 3 Xrotation Yrotation Zrotation
                    End Site
                    {
                        OFFSET  -0.010000   0.002000   0.060000
                    }
                }
            }
        }
    }
    JOINT lHip
    {
        OFFSET   0.100000  -0.051395   0.000000
        CHANNELS 3 Xrotation Yrotation Zrotation
        JOINT lKnee
        {
            OFFSET   0.000000  -0.410000   0.000000
            CHANNELS 3 Xrotation Yrotation Zrotation
            JOINT lAnkle
            {
                OFFSET   0.000000  -0.390000   0.000000
                CHANNELS 3 Xrotation Yrotation Zrotation
                JOINT lToeJoint
                {
                    OFFSET   0.000000  -0.050000   0.130000
                    CHANNELS 3 Xrotation Yrotation Zrotation
                    End Site
                    {
                        OFFSET   0.010000   0.002000   0.060000
                    }
                }
            }
        }
    }
}
MOTION
Frames: 8
Frame Time:   0.008333
 -2.290559   1.063657   4.272528   5.234211   5.093800  -2.974835   6.225857   1.752594  -0.627285   6.028114  -3.638610   2.407898  -4.755897   0.322060  -3.131769   7.936383   2.102958  10.113493  21.891564   6.380513  41.665307  -0.009676  16.271894   0.003471   6.971459  -0.547991  -0.480839   7.945716  -3.260345  -9.074870  19.702758 -11.275996 -42.104561  -0.009449 -21.367411  -0.003588   2.858758  -3.997302  -2.331370 -29.432824  -4.839746  -1.412272  25.748576  -0.001699   0.005588  11.850269  -3.601774   7.895600  -0.210301  -0.000356  -0.001459 -27.500714   5.190709   5.739423  29.374637   0.001500   0.002460  13.198454  -1.605141  -6.620433   1.666078   0.000095  -0.000287
 -2.289618   1.048997   4.275915   5.003231   5.313267  -3.038873   6.558557   1.637320  -0.527012   6.094911  -3.595038   2.448863  -4.968174   0.318229  -3.107243   8.050045   1.986764  10.231410  21.878574   6.133390  42.013236  -0.008769  16.041929   0.002814   6.871669  -0.483057  -0.332357   8.065669  -3.160595  -9.210667  19.894941 -11.211667 -42.280740  -0.008253 -21.215790  -0.003020   2.845448  -4.036985  -2.655286 -30.071480  -4.718417  -1.302079  27.557636  -0.001904   0.010574  10.074493  -3.926300   7.452393  -0.308067  -0.000635  -0.001317 -27.836681   4.963383   5.687967  30.493682   0.002195   0.001991  11.594488  -1.386688  -6.041217   1.588549   0.000419  -0.000297
 -2.288624   1.033601   4.279477   4.725287   5.539667  -3.105389   6.873014   1.521463  -0.409114   6.177890  -3.556149   2.505057  -5.164698   0.314943  -3.081582   8.164120   1.870379  10.335317  21.874947   5.890563  42.324995  -0.007927  15.819894   0.002250   6.770956  -0.450608  -0.214637   8.179951  -3.065463  -9.328103  20.080079 -11.139851 -42.423202  -0.007150 -21.064899  -0.002500   2.832636  -4.032848  -2.931676 -30.664269  -4.599502  -1.188860  29.422118  -0.001667   0.014861   8.417086  -4.219983   7.028108  -0.432655  -0.000947  -0.001254 -28.093614   4.738355   5.628325  31.671449   0.002887   0.001596  10.094966  -1.195226  -5.493499   1.478108   0.000778  -0.000335
 -2.287590   1.017507   4.283173   4.442568   5.771197  -3.173723   7.148115   1.407834  -0.282332   6.251324  -3.524202   2.573516  -5.348518   0.311766  -3.055778   8.278157   1.753784  10.428449  21.878835   5.656604  42.613062  -0.007144  15.608823   0.001764   6.674117  -0.441865  -0.110201   8.290313  -2.971697  -9.424625  20.257693 -11.065816 -42.546139  -0.006132 -20.920503  -0.002017   2.821560  -4.005001  -3.173207 -31.213784  -4.490062  -1.074435  31.193328  -0.001141   0.017936   6.870133  -4.482502   6.624583  -0.539648  -0.001119  -0.001192 -28.295920   4.532348   5.559181  32.803900   0.003519   0.001388   8.696195  -1.030048  -4.978000   1.384716   0.000954  -0.000351
 -2.286526   1.000731   4.286958   4.165449   6.004937  -3.242628   7.387667   1.297864  -0.150413   6.309202  -3.497843   2.650713  -5.522442   0.308792  -3.030389   8.388726   1.640607  10.513521  21.886713   5.434512  42.881041  -0.006418  15.409997   0.001353   6.581095  -0.445056  -0.012784   8.394754  -2.881644  -9.502723  20.426153 -10.992308 -42.652659  -0.005204 -20.783979  -0.001579   2.811524  -3.966529  -3.386476 -31.729214  -4.389478  -0.960764  32.851632  -0.000476   0.019925   5.424567  -4.717174   6.241671  -0.636177  -0.001205  -0.001137 -28.458027   4.344689   5.481870  33.873944   0.004055   0.001293   7.390279  -0.887731  -4.493456   1.302690   0.001022  -0.000354
 -2.285436   0.983282   4.290808   3.895956   6.239001  -3.311322   7.597337   1.192232  -0.015589   6.352289  -3.475842   2.734258  -5.687087   0.306028  -3.005708   8.493242   1.533658  10.592329  21.895947   5.226053  43.130639  -0.005744  15.223909   0.001016   6.491820  -0.452168   0.078942   8.491756  -2.797275  -9.565330  20.584366 -10.921240 -42.744739  -0.004371 -20.655817  -0.001191   2.802188  -3.924328  -3.574723 -32.215468  -4.296991  -0.849258  34.399024   0.000226   0.021030   4.073475  -4.927028   5.879059  -0.724697  -0.001233  -0.001086 -28.588196   4.173546   5.398707  34.880478   0.004479   0.001264   6.170860  -0.765289  -4.038469   1.229461   0.001022  -0.000348
 -2.284326   0.965164   4.294702   3.634180   6.472207  -3.379252   7.781778   1.091267   0.120488   6.382560  -3.457286   2.822322  -5.842612   0.303449  -2.981870   8.590293   1.434425  10.666063  21.904892   5.031905  43.363166  -0.005122  15.050519   0.000744   6.406204  -0.458276   0.165168   8.580666  -2.719572  -9.615134  20.731926 -10.853745 -42.824191  -0.003635 -20.536074  -0.000855   2.793353  -3.882294  -3.740599 -32.675327  -4.211894  -0.741019  35.841500   0.000900   0.021444   2.810716  -5.114780   5.536286  -0.806249  -0.001221  -0.001039 -28.692186   4.017215   5.311913  35.825698   0.004792   0.001271   5.032227  -0.660105  -3.611606   1.163687   0.000981  -0.000335
 -2.283414   0.946027   4.297832   3.293344   6.913140  -3.490609   8.373306   0.919759   0.331407   6.226577  -3.502564   2.899658  -6.141759   0.349891  -2.866580   8.626134   1.341984  10.728905  21.647336   4.734575  43.519315  -0.004351  14.850623   0.000170   6.360025  -0.457122   0.318608   8.557983  -2.737016  -9.650542  20.466101 -10.632962 -42.823735  -0.002566 -20.251858   0.000458   2.773209  -3.725819  -3.959476 -33.275274  -4.082287  -0.666690  37.933081   0.003926   0.027870   0.611449  -5.568722   4.914047  -0.579134   0.000337  -0.000350 -29.254071   3.629056   5.232278  38.145595   0.006692   0.002200   1.539365  -0.191116  -2.921505   1.536793  -0.001023   0.001101
